<?xml version="1.0" encoding="utf-8"?>
<!-- Generator: Adobe Illustrator 18.0.0, SVG Export Plug-In . SVG Version: 6.00 Build 0)  -->
<!DOCTYPE svg PUBLIC "-//W3C//DTD SVG 1.1//EN" "http://www.w3.org/Graphics/SVG/1.1/DTD/svg11.dtd">
<svg version="1.1" id="Capa_1" xmlns:sketch="http://www.bohemiancoding.com/sketch/ns"
	 xmlns="http://www.w3.org/2000/svg" xmlns:xlink="http://www.w3.org/1999/xlink" x="0px" y="0px" width="30px" height="30px" fill= "#007aff" viewBox="0 0 32 32"
	 enable-background="new 0 0 32 32" xml:space="preserve">
<title>icon 77 document file css</title>
<desc>Created with Sketch.</desc>
<g>
	<path d="M16,10h5l-6-7v6C15,9.6,15.5,10,16,10z"/>
	<path d="M9,23v-7c0-1.7,1.3-3,3-3h9v-2h-5c-1.1,0-2-0.9-2-2V3H4C2.9,3,2,3.9,2,5v23c0,1.1,0.9,2,2,2h15c1.1,0,2-0.9,2-2v-2h-9
		C10.3,26,9,24.7,9,23z"/>
	<path d="M29,14H12c-1.1,0-2,0.9-2,2v7c0,1.1,0.9,2,2,2h17c1.1,0,2-0.9,2-2v-7C31,14.9,30.1,14,29,14z M14,22h1c0.6,0,1-0.4,1-1l1,0
		c0,1.1-0.9,2-2,2h-1c-1.1,0-2-0.9-2-2v-3c0-1.1,0.9-2,2-2h1c1.1,0,2,0.9,2,2h-1c0-0.6-0.4-1-1-1h-1c-0.6,0-1,0.4-1,1v3
		C13,21.6,13.4,22,14,22z M20,19h1c1.1,0,2,0.9,2,2c0,1.1-0.9,2-2,2h-1c-1.1,0-2-0.9-2-2v0h1v0c0,0.5,0.4,1,1,1h1c0.6,0,1-0.4,1-1
		c0-0.6-0.5-1-1-1h-1c-1.1,0-2-0.9-2-2c0-1.1,0.9-2,2-2h1c1.1,0,2,0.9,2,2h-1c0-0.5-0.4-1-1-1h-1c-0.6,0-1,0.4-1,1
		C19,18.6,19.5,19,20,19z M26,19h1c1.1,0,2,0.9,2,2c0,1.1-0.9,2-2,2h-1c-1.1,0-2-0.9-2-2v0h1v0c0,0.5,0.4,1,1,1h1c0.6,0,1-0.4,1-1
		c0-0.6-0.5-1-1-1h-1c-1.1,0-2-0.9-2-2c0-1.1,0.9-2,2-2h1c1.1,0,2,0.9,2,2h-1c0-0.5-0.4-1-1-1h-1c-0.6,0-1,0.4-1,1
		C25,18.6,25.5,19,26,19z"/>
</g>
</svg>
