<?xml version="1.0" encoding="utf-8"?>
<!-- Generator: Adobe Illustrator 16.0.0, SVG Export Plug-In . SVG Version: 6.00 Build 0)  -->
<!DOCTYPE svg PUBLIC "-//W3C//DTD SVG 1.1//EN" "http://www.w3.org/Graphics/SVG/1.1/DTD/svg11.dtd">
<svg version="1.1" id="Layer_1" xmlns="http://www.w3.org/2000/svg" xmlns:xlink="http://www.w3.org/1999/xlink" x="0px" y="0px"
	 width="100px" height="100px" viewBox="0 0 100 100" enable-background="new 0 0 100 100" xml:space="preserve">
<g>
	<path d="M50.532,38.429c-0.392-0.384-1.021-0.379-1.408,0.01L32.166,55.606C31.979,55.793,32,56.047,32,56.311v18
		C32,74.864,32.198,76,32.75,76h34.667C67.969,76,68,74.864,68,74.311v-18c0-0.27,0.1-0.527-0.093-0.715L50.532,38.429z M66,74
		h-9.583H43.25H34V56.724l15.76-16.172L66,56.732V74z"/>
	<path d="M74.792,54.772l-24.25-24.333c-0.188-0.189-0.459-0.282-0.712-0.294c-0.267,0.001-0.596,0.109-0.783,0.3L40,39.574v-5.326
		C40,33.697,39.698,34,39.146,34h-5.999C32.595,34,32,33.697,32,34.249v13.464l-6.87,7.064c-0.387,0.395-0.344,1.027,0.049,1.415
		c0.394,0.387,1.045,0.381,1.433-0.013l7.232-7.349c0,0,0.006-0.001,0.006-0.001l15.986-16.263l23.538,23.618
		c0.195,0.196,0.453,0.294,0.709,0.294c0.255,0,0.511-0.097,0.706-0.292C75.18,55.796,75.182,55.164,74.792,54.772z M34,36h4v5.609
		l-4,4.069V36z"/>
</g>
</svg>
