<?xml version="1.0" encoding="utf-8"?>
<!-- Generator: Adobe Illustrator 15.0.0, SVG Export Plug-In . SVG Version: 6.00 Build 0)  -->
<!DOCTYPE svg PUBLIC "-//W3C//DTD SVG 1.1//EN" "http://www.w3.org/Graphics/SVG/1.1/DTD/svg11.dtd">
<svg version="1.1" id="Layer_1" xmlns="http://www.w3.org/2000/svg" xmlns:xlink="http://www.w3.org/1999/xlink" x="0px" y="0px"
	 width="30px" height="30px" fill="#007aff" viewBox="0 0 64 64" enable-background="new 0 0 64 64" xml:space="preserve">
<g>
	<g>
		<g>
			<path d="M31.997,59.238L4.762,32l10.464-10.464c0.509-0.506,1.001-0.753,1.507-0.753c1.255,0,1.665,1.282,2.024,2.411
				c0.254,0.792,0.54,1.683,1.018,2.236l0.111,0.106c1.316,1.312,3.603,1.313,4.911,0.001c0.658-0.657,1.021-1.526,1.021-2.452
				c0-0.929-0.362-1.801-1.018-2.459l-0.105-0.103c-0.561-0.5-1.432-0.809-2.207-1.083c-1.067-0.377-2.077-0.734-2.301-1.726
				c-0.21-0.926,0.492-1.631,0.725-1.864l11.086-11.09l10.55,10.55c0.014,0.015,0.03,0.03,0.044,0.044
				c0.133-0.292,0.285-0.722,0.407-1.067c0.409-1.157,0.921-2.599,1.96-3.641l0.095-0.09c1.222-1.178,2.823-1.825,4.521-1.825
				c1.742,0,3.38,0.679,4.615,1.912c1.229,1.229,1.908,2.865,1.908,4.605c-0.003,1.587-0.563,3.087-1.598,4.274v0.021l-0.311,0.329
				c-1.045,1.047-2.549,1.529-3.755,1.918c-0.335,0.108-0.749,0.24-1.045,0.361L59.238,32L48.595,42.646
				c-0.362,0.36-0.927,0.84-1.659,0.84l0,0c-1.35,0-1.798-1.396-2.229-2.747c-0.308-0.967-0.656-2.052-1.25-2.747l-0.161-0.149
				c-0.826-0.83-1.93-1.286-3.103-1.286c-1.17,0-2.272,0.456-3.103,1.286c-1.709,1.71-1.709,4.493,0,6.205
				c0.711,0.711,1.851,1.112,2.856,1.469c1.28,0.453,2.387,0.843,2.63,1.918c0.227,0.999-0.559,1.784-0.818,2.043L31.997,59.238z"/>
		</g>
	</g>
</g>
</svg>
